Coordinates
version=1
nRows=23
nColumns=23
inDegrees=yes

Units are S.I. units (second, meters, Newtons, ...)
If the header above contains a line with 'inDegrees', this indicates whether rotational values are in degrees (yes) or radians (no).

endheader
time	pelvis_tilt	pelvis_list	pelvis_rotation	pelvis_tx	pelvis_ty	pelvis_tz	hip_flexion_r	hip_adduction_r	hip_rotation_r	knee_angle_r	knee_angle_r_beta	ankle_angle_r	subtalar_angle_r	mtp_angle_r	hip_flexion_l	hip_adduction_l	hip_rotation_l	knee_angle_l	knee_angle_l_beta	ankle_angle_l	subtalar_angle_l	mtp_angle_l
     22.50000000	     -9.58044127	      4.97203902	      0.82763799	      2.25254515	      1.04824720	      1.04037948	    -11.01355168	     -5.04711262	    -13.28334819	     19.67521099	      0.34339721	    -11.78142285	     -0.93542503	      0.00000000	     40.47495236	      2.24227115	     -7.63721162	     65.74500883	      1.14746687	      5.87657166	    -10.64021425	      0.00000000
     22.50666667	    -10.27622854	      5.33052699	      1.14836623	      2.25432688	      1.05099610	      1.03994950	    -11.78428875	     -5.47739008	    -13.69799951	     19.07771361	      0.33296892	    -15.37803031	     -0.96476301	      0.00000000	     41.43468400	      2.85368674	     -8.22151889	     61.83979067	      1.07930796	      6.27803451	     -9.82754213	      0.00000000
     22.51333333	    -10.67256154	      5.58578215	      1.44960308	      2.25624533	      1.05400304	      1.03954202	    -12.90034003	     -5.62042543	    -13.45481301	     18.33822845	      0.32006247	    -18.80180748	     -2.04743032	      0.00000000	     41.91037332	      3.33108720	     -8.84344124	     57.76456392	      1.00818183	      6.77039372	     -8.61332014	      0.00000000
     22.52000000	    -11.28484111	      5.80028889	      1.79832819	      2.25789449	      1.05635038	      1.03897725	    -13.42589970	     -5.88510215	    -13.65679371	     18.39820838	      0.32110931	    -21.41984683	     -2.52316854	      0.00000000	     42.51585956	      3.82177723	     -9.44713024	     53.58323476	      0.93520387	      7.26611505	     -7.08021717	      0.00000000
     22.52666667	    -12.01509241	      5.86306408	      2.19991385	      2.25933179	      1.05815530	      1.03824930	    -13.60343099	     -6.05225922	    -14.00756710	     18.93768949	      0.33052503	    -23.29679211	     -2.91866704	      0.00000000	     43.16279742	      4.25423123	     -9.91136342	     49.35304611	      0.86137315	      7.72006443	     -5.48182820	      0.00000000
     22.53333333	    -12.53742427	      5.90481144	      2.55426503	      2.26076565	      1.05974889	      1.03760955	    -13.86164780	     -6.15007127	    -14.06700435	     19.78302021	      0.34527884	    -24.57111612	     -3.65613899	      0.00000000	     43.49100626	      4.53440841	    -10.71015788	     45.16918802	      0.78835105	      8.47982794	     -2.78797199	      0.00000000
     22.54000000	    -13.13829240	      5.84508091	      2.99313238	      2.26187218	      1.06070911	      1.03677471	    -13.78831545	     -6.20383247	    -14.32577029	     21.17750065	      0.36961711	    -25.14688167	     -4.20644972	      0.00000000	     43.85851798	      4.86251511	    -11.33624509	     41.04001131	      0.71628332	      9.17667681	     -0.13058806	      0.00000000
     22.54666667	    -13.73145318	      5.70503971	      3.47289887	      2.26281249	      1.06109847	      1.03578401	    -13.55745874	     -6.19640222	    -14.60937468	     22.93880933	      0.40035775	    -25.23776740	     -4.74165658	      0.00000000	     44.18240100	      5.20875125	    -11.86272416	     37.05165786	      0.64667342	      9.93637655	      2.67339117	      0.00000000
     22.55333333	    -14.29510357	      5.50136117	      4.04975887	      2.26350812	      1.06098614	      1.03457669	    -13.21077330	     -6.10165337	    -14.87750287	     24.99722198	      0.43628383	    -25.05719336	     -5.57360091	      0.00000000	     44.43446273	      5.74212474	    -11.88860008	     33.16846078	      0.57889885	     10.56685822	      4.92743678	      0.00000000
     22.56000000	    -14.76957544	      5.28180899	      4.48751674	      2.26395992	      1.06038470	      1.03353313	    -12.69524300	     -6.10881754	    -15.18680798	     27.52581083	      0.48041603	    -24.65526796	     -6.02202233	      0.00000000	     44.61071646	      6.11932420	    -12.12031187	     29.63514257	      0.51723081	     11.25257226	      7.53351017	      0.00000000
     22.56666667	    -15.11630178	      4.92541448	      5.07394803	      2.26424642	      1.05944736	      1.03232866	    -12.25199827	     -5.89172421	    -15.50007537	     30.10332198	      0.52540208	    -24.29372419	     -6.75515781	      0.00000000	     44.66325289	      6.59838873	    -11.68719785	     26.41177462	      0.46097243	     11.97324600	      9.59878391	      0.00000000
     22.57333333	    -15.37328116	      4.67331158	      5.49219767	      2.26424482	      1.05802893	      1.03131463	    -11.64758143	     -5.96306089	    -15.95699774	     33.12852121	      0.57820177	    -23.94383788	     -7.22198066	      0.00000000	     44.64351699	      7.01599674	    -11.38392358	     23.58623283	      0.41165742	     12.45091589	     11.32758968	      0.00000000
     22.58000000	    -15.47994950	      4.34580787	      5.98547867	      2.26417416	      1.05638867	      1.03032478	    -11.13911030	     -5.89213881	    -16.38347510	     36.13765169	      0.63072101	    -23.66917511	     -7.82138301	      0.00000000	     44.47237740	      7.41506356	    -10.71938056	     21.18784292	      0.36979762	     13.02427554	     12.72364358	      0.00000000
     22.58666667	    -15.42579284	      4.23593694	      6.41371343	      2.26385516	      1.05446030	      1.02947164	    -10.63436126	     -6.23961309	    -17.13276659	     39.47292889	      0.68893257	    -23.29761339	     -7.77045234	      0.00000000	     44.07612950	      7.99372819	     -9.68048235	     19.06611430	      0.33276647	     13.05380619	     12.77074528	      0.00000000
     22.59333333	    -15.19042849	      3.95467995	      6.83719854	      2.26345424	      1.05234445	      1.02886875	    -10.24595418	     -6.22697065	    -17.48270354	     42.64644466	      0.74432087	    -23.20127069	     -8.60395797	      0.00000000	     43.69075843	      8.20182492	     -9.07099816	     17.83494510	      0.31127851	     13.41046533	     13.47079372	      0.00000000
     22.60000000	    -14.80406617	      3.78963357	      7.18919474	      2.26291644	      1.04996741	      1.02850632	     -9.89609257	     -6.39878220	    -17.87627092	     45.92344805	      0.80151537	    -23.05141909	     -9.17374168	      0.00000000	     43.22240333	      8.36375528	     -8.61769868	     17.19550492	      0.30011818	     13.43174135	     13.57225869	      0.00000000
     22.60666667	    -14.21902170	      3.63297820	      7.59540612	      2.26228084	      1.04739829	      1.02823177	     -9.68416026	     -6.52549165	    -18.26463500	     49.17105750	      0.85819685	    -22.79470303	     -9.89471370	      0.00000000	     42.68819200	      8.44231703	     -8.31924024	     17.29915679	      0.30192724	     13.39768732	     13.49611125	      0.00000000
     22.61333333	    -13.60147665	      3.54131928	      7.92277099	      2.26151383	      1.04445554	      1.02821903	     -9.37410836	     -6.73785771	    -18.53509413	     52.46549293	      0.91569560	    -22.46398164	    -10.48158673	      0.00000000	     42.24141870	      8.41598858	     -8.25769989	     18.06758373	      0.31533882	     13.15708286	     13.08850432	      0.00000000
     22.62000000	    -12.70130367	      3.44760858	      8.33365748	      2.26071717	      1.04149015	      1.02828714	     -9.33523572	     -6.87916641	    -18.88236303	     55.62392624	      0.97082066	    -22.07298475	    -11.28922268	      0.00000000	     41.63598435	      8.29671224	     -8.32813117	     19.54217783	      0.34107535	     12.59898725	     12.53425129	      0.00000000
     22.62666667	    -12.06486910	      3.24911662	      8.58566143	      2.25965979	      1.03762675	      1.02876298	     -8.76029229	     -6.91790682	    -18.85218200	     58.92609607	      1.02845439	    -21.44337206	    -11.96892189	      0.00000000	     41.54684545	      7.86980128	     -8.64779707	     21.83262285	      0.38105115	     12.14839959	     11.79764129	      0.00000000
     22.63333333	    -11.27105929	      3.01833267	      8.87895220	      2.25856876	      1.03359720	      1.02934239	     -8.28646688	     -6.88210258	    -18.84723129	     62.12048258	      1.08420695	    -20.80326825	    -12.78404676	      0.00000000	     41.36207939	      7.34386363	     -8.88090452	     24.62371789	      0.42976495	     11.40702489	     10.93214120	      0.00000000
     22.64000000	    -10.44846154	      2.83969835	      9.14595898	      2.25740806	      1.02928975	      1.03011279	     -7.73698066	     -6.89688647	    -18.79417250	     65.29396681	      1.13959470	    -20.08430077	    -13.55566861	      0.00000000	     41.14055496	      6.84495909	     -8.86863861	     27.72358475	      0.48386783	     10.58086455	      9.55141746	      0.00000000
     22.64666667	     -9.69075808	      2.67410996	      9.36906492	      2.25610680	      1.02467968	      1.03098392	     -6.98305805	     -6.95328399	    -18.66153587	     68.46625079	      1.19496150	    -19.27071270	    -14.22715913	      0.00000000	     40.95242447	      6.40436628	     -8.49769376	     31.02390169	      0.54146923	      9.88794084	      7.69543434	      0.00000000
